<svg xmlns="http://www.w3.org/2000/svg" viewBox="0 0 1831 260" role="img" aria-label="SEIOLE LABS wordmark — black">
  <title>SEIOLE LABS wordmark — black</title>
  <path d="M311.099853515625 -14Q232.19970703125 -14 171.2496337890625 14.12506103515625Q110.299560546875 42.2501220703125 75.6495361328125 96.42510986328125Q40.99951171875 150.60009765625 40.99951171875 229.39990234375V254.2501220703125H147.901123046875V229.39990234375Q147.901123046875 154.500732421875 192.67572021484375 117.7510986328125Q237.4503173828125 81.00146484375 311.099853515625 81.00146484375Q385.7493896484375 81.00146484375 423.97406005859375 112.72613525390625Q462.19873046875 144.4508056640625 462.19873046875 193.80029296875Q462.19873046875 227.3499755859375 444.298828125 247.97479248046875Q426.39892578125 268.599609375 393.1490478515625 281.49951171875Q359.899169921875 294.3994140625 313.8492431640625 305.099365234375L276.500244140625 313.9490966796875Q209.7498779296875 329.59912109375 160.52471923828125 353.399169921875Q111.299560546875 377.19921875 84.32452392578125 415.97430419921875Q57.3494873046875 454.7493896484375 57.3494873046875 516.299560546875Q57.3494873046875 577.8497314453125 87.49951171875 622.1248168945312Q117.6495361328125 666.39990234375 171.92462158203125 690.199951171875Q226.19970703125 714 299.099853515625 714Q372 714 429.4500732421875 689.0249633789062Q486.900146484375 664.0499267578125 520.0501708984375 614.9498291015625Q553.2001953125 565.8497314453125 553.2001953125 491.9495849609375V456H446.298583984375V491.9495849609375Q446.298583984375 537.19921875 427.82379150390625 565.0239868164062Q409.3489990234375 592.8487548828125 376.1492919921875 605.9236450195312Q342.9495849609375 618.99853515625 299.099853515625 618.99853515625Q234.5501708984375 618.99853515625 199.400634765625 592.6488037109375Q164.2510986328125 566.299072265625 164.2510986328125 518.899658203125Q164.2510986328125 487.300048828125 179.8509521484375 466.8502197265625Q195.4508056640625 446.400390625 225.42559814453125 433.3504638671875Q255.400390625 420.300537109375 299.500244140625 410.2506103515625L336.8492431640625 401.40087890625Q404.8497314453125 386.4508056640625 457.02496337890625 362.67572021484375Q509.2001953125 338.900634765625 539.1502685546875 299.12554931640625Q569.100341796875 259.3504638671875 569.100341796875 196.400390625Q569.100341796875 133.4503173828125 537.30029296875 86.17523193359375Q505.500244140625 38.900146484375 447.57513427734375 12.4500732421875Q389.6500244140625 -14 311.099853515625 -14Z" fill="#000000" transform="translate(40.000 220.000) scale(0.257143 -0.257143)"/>
<path d="M72.99951171875 0V700H513.5501708984375V601.698486328125H181.201171875V401.4508056640625H485.5501708984375V303.1492919921875H181.201171875V98.301513671875H518.8502197265625V0Z" fill="#000000" transform="translate(217.171 220.000) scale(0.257143 -0.257143)"/>
<path d="M72.99951171875 0V700H181.201171875V0Z" fill="#000000" transform="translate(381.486 220.000) scale(0.257143 -0.257143)"/>
<path d="M336.2501220703125 -14Q207.39990234375 -14 131.1497802734375 58.5Q54.899658203125 131 54.899658203125 267.7498779296875V432.2501220703125Q54.899658203125 569 131.1497802734375 641.5Q207.39990234375 714 336.2501220703125 714Q465.100341796875 714 541.3504638671875 641.5Q617.6005859375 569 617.6005859375 432.2501220703125V267.7498779296875Q617.6005859375 131 541.3504638671875 58.5Q465.100341796875 -14 336.2501220703125 -14ZM336.2501220703125 83.00146484375Q418.6495361328125 83.00146484375 464.02423095703125 131.60107421875Q509.39892578125 180.20068359375 509.39892578125 264.4498291015625V435.5501708984375Q509.39892578125 519.79931640625 464.02423095703125 568.39892578125Q418.6495361328125 616.99853515625 336.2501220703125 616.99853515625Q254.8507080078125 616.99853515625 208.97601318359375 568.39892578125Q163.101318359375 519.79931640625 163.101318359375 435.5501708984375V264.4498291015625Q163.101318359375 180.20068359375 208.97601318359375 131.60107421875Q254.8507080078125 83.00146484375 336.2501220703125 83.00146484375Z" fill="#000000" transform="translate(467.371 220.000) scale(0.257143 -0.257143)"/>
<path d="M72.99951171875 0V700H181.201171875V98.301513671875H518V0Z" fill="#000000" transform="translate(661.000 220.000) scale(0.257143 -0.257143)"/>
<path d="M72.99951171875 0V700H513.5501708984375V601.698486328125H181.201171875V401.4508056640625H485.5501708984375V303.1492919921875H181.201171875V98.301513671875H518.8502197265625V0Z" fill="#000000" transform="translate(821.457 220.000) scale(0.257143 -0.257143)"/>
<path d="M72.99951171875 0V700H181.201171875V98.301513671875H518V0Z" fill="#000000" transform="translate(1098.914 220.000) scale(0.257143 -0.257143)"/>
<path d="M21.499755859375 0 221.2486572265625 700H410.6514892578125L610.400390625 0H498.5487060546875L452.8492431640625 165.19921875H179.0509033203125L133.3514404296875 0ZM205.501220703125 264.80078125H426.39892578125L323.900146484375 632.7489013671875H308Z" fill="#000000" transform="translate(1259.371 220.000) scale(0.257143 -0.257143)"/>
<path d="M46.699951171875 0V95.701416015625H141.499755859375V604.298583984375H46.699951171875V700H402.1502685546875Q464.7503662109375 700 512.0753784179688 678.3250122070312Q559.400390625 656.6500244140625 585.900390625 617.1500244140625Q612.400390625 577.6500244140625 612.400390625 523.699951171875V514.39990234375Q612.400390625 466.0499267578125 594.0504150390625 435.02496337890625Q575.700439453125 404 550.3255004882812 386.97503662109375Q524.9505615234375 369.9500732421875 501.5506591796875 362.60009765625V346.699951171875Q524.9505615234375 340.699951171875 551.4755249023438 323.5Q578.00048828125 306.300048828125 596.50048828125 274.9500732421875Q615.00048828125 243.60009765625 615.00048828125 193.9500732421875V183.9500732421875Q615.00048828125 126.300048828125 587.8255004882812 84.97503662109375Q560.6505126953125 43.6500244140625 513.1505126953125 21.82501220703125Q465.6505126953125 0 403.700439453125 0ZM249.701416015625 98.301513671875H391.2001953125Q445.3994140625 98.301513671875 476.09912109375 124.201171875Q506.798828125 150.100830078125 506.798828125 196.100341796875V205.400390625Q506.798828125 251.39990234375 476.42413330078125 277.299560546875Q446.0494384765625 303.19921875 391.2001953125 303.19921875H249.701416015625ZM249.701416015625 401.500732421875H391.300048828125Q442.099365234375 401.500732421875 473.1490478515625 427.22540283203125Q504.19873046875 452.9500732421875 504.19873046875 496.599609375V506.599609375Q504.19873046875 550.899169921875 473.47406005859375 576.298828125Q442.7493896484375 601.698486328125 391.300048828125 601.698486328125H249.701416015625Z" fill="#000000" transform="translate(1442.457 220.000) scale(0.257143 -0.257143)"/>
<path d="M311.099853515625 -14Q232.19970703125 -14 171.2496337890625 14.12506103515625Q110.299560546875 42.2501220703125 75.6495361328125 96.42510986328125Q40.99951171875 150.60009765625 40.99951171875 229.39990234375V254.2501220703125H147.901123046875V229.39990234375Q147.901123046875 154.500732421875 192.67572021484375 117.7510986328125Q237.4503173828125 81.00146484375 311.099853515625 81.00146484375Q385.7493896484375 81.00146484375 423.97406005859375 112.72613525390625Q462.19873046875 144.4508056640625 462.19873046875 193.80029296875Q462.19873046875 227.3499755859375 444.298828125 247.97479248046875Q426.39892578125 268.599609375 393.1490478515625 281.49951171875Q359.899169921875 294.3994140625 313.8492431640625 305.099365234375L276.500244140625 313.9490966796875Q209.7498779296875 329.59912109375 160.52471923828125 353.399169921875Q111.299560546875 377.19921875 84.32452392578125 415.97430419921875Q57.3494873046875 454.7493896484375 57.3494873046875 516.299560546875Q57.3494873046875 577.8497314453125 87.49951171875 622.1248168945312Q117.6495361328125 666.39990234375 171.92462158203125 690.199951171875Q226.19970703125 714 299.099853515625 714Q372 714 429.4500732421875 689.0249633789062Q486.900146484375 664.0499267578125 520.0501708984375 614.9498291015625Q553.2001953125 565.8497314453125 553.2001953125 491.9495849609375V456H446.298583984375V491.9495849609375Q446.298583984375 537.19921875 427.82379150390625 565.0239868164062Q409.3489990234375 592.8487548828125 376.1492919921875 605.9236450195312Q342.9495849609375 618.99853515625 299.099853515625 618.99853515625Q234.5501708984375 618.99853515625 199.400634765625 592.6488037109375Q164.2510986328125 566.299072265625 164.2510986328125 518.899658203125Q164.2510986328125 487.300048828125 179.8509521484375 466.8502197265625Q195.4508056640625 446.400390625 225.42559814453125 433.3504638671875Q255.400390625 420.300537109375 299.500244140625 410.2506103515625L336.8492431640625 401.40087890625Q404.8497314453125 386.4508056640625 457.02496337890625 362.67572021484375Q509.2001953125 338.900634765625 539.1502685546875 299.12554931640625Q569.100341796875 259.3504638671875 569.100341796875 196.400390625Q569.100341796875 133.4503173828125 537.30029296875 86.17523193359375Q505.500244140625 38.900146484375 447.57513427734375 12.4500732421875Q389.6500244140625 -14 311.099853515625 -14Z" fill="#000000" transform="translate(1633.514 220.000) scale(0.257143 -0.257143)"/>
</svg>
